{
  "cells": [
    {
      "cell_type": "markdown",
      "source": [
        "# 3D GOL"
      ],
      "metadata": {
        "id": "S4rcBUqBr8tf"
      }
    },
    {
      "cell_type": "code",
      "source": [
        "import numpy as np\n",
        "import random\n",
        "import os\n",
        "import matplotlib.pyplot as plt\n",
        "import subprocess"
      ],
      "metadata": {
        "id": "Pv3S5-bnoSbj"
      },
      "execution_count": 1,
      "outputs": []
    },
    {
      "cell_type": "code",
      "source": [
        "class GameOfLife3D:\n",
        "    \"\"\"\n",
        "    Implements a 3D Cellular Automaton with 3 states (0: Dead, 1: Type A, 2: Type B) with periodic boundary conditions.\n",
        "    The rules are:\n",
        "    Currently, it outputs a textfile and a frame (3D Proj) image every step.\n",
        "    \"\"\"\n",
        "    def __init__(self, size_l, size_w, size_h):\n",
        "        if not (isinstance(size_l, int) and size_l > 0 and\n",
        "                  isinstance(size_w, int) and size_w > 0 and\n",
        "                  isinstance(size_h, int) and size_h > 0):\n",
        "            raise ValueError(\"Grid dim must be positive integers.\")\n",
        "\n",
        "        self.size_l = size_l\n",
        "        self.size_w = size_w\n",
        "        self.size_h = size_h\n",
        "        self.grid = np.zeros((size_l, size_w, size_h), dtype=np.int8)\n",
        "        print(f\"Initialized grid with shape: {self.grid.shape}\")\n",
        "\n",
        "    def randomize(self, density_a=0.1, density_b=0.1):\n",
        "        \"\"\"\n",
        "        Start randomly with Type A and Type B cells based on densities.\n",
        "        \"\"\"\n",
        "        if not (0 <= density_a <= 1 and 0 <= density_b <= 1):\n",
        "             raise ValueError(\"Densities must be between 0 and 1.\")\n",
        "        if density_a + density_b > 1:\n",
        "            raise ValueError(\"Sum of densities (density_a + density_b) cannot exceed 1.\")\n",
        "            # Can be less\n",
        "        total_cells = self.size_l * self.size_w * self.size_h\n",
        "        num_a = int(total_cells * density_a)\n",
        "        num_b = int(total_cells * density_b)\n",
        "        num_dead = total_cells - num_a - num_b\n",
        "\n",
        "        states = [1] * num_a + [2] * num_b + [0] * num_dead\n",
        "        random.shuffle(states)\n",
        "\n",
        "        self.grid = np.array(states, dtype=np.int8).reshape(self.grid.shape)\n",
        "        print(f\"Randomized grid: ~{density_a*100:.1f}% Type A, ~{density_b*100:.1f}% Type B.\")\n",
        "\n",
        "    def _count_neighbors(self, x, y, z):\n",
        "        \"\"\"Counts Type A and Type B neighbors using periodic boundaries.\"\"\"\n",
        "        # TODO: should we use periodic boundaries?\n",
        "        count_a = 0\n",
        "        count_b = 0\n",
        "        for i_offset in [-1, 0, 1]:\n",
        "            for j_offset in [-1, 0, 1]:\n",
        "                for k_offset in [-1, 0, 1]:\n",
        "                    if i_offset == 0 and j_offset == 0 and k_offset == 0:\n",
        "                        continue\n",
        "                    nx = (x + i_offset) % self.size_l\n",
        "                    ny = (y + j_offset) % self.size_w\n",
        "                    nz = (z + k_offset) % self.size_h\n",
        "                    neighbor_state = self.grid[nx, ny, nz]\n",
        "                    if neighbor_state == 1:\n",
        "                        count_a += 1\n",
        "                    elif neighbor_state == 2:\n",
        "                        count_b += 1\n",
        "        return count_a, count_b\n",
        "\n",
        "    def _apply_rules(self, current_state, count_a, count_b):\n",
        "        \"\"\"The rule currently is: \"\"\"\n",
        "        # 3 neighbors of A and 0 neighbors of B will create type A\n",
        "        # 3 neighbors of B and 0 neighbors of A will create type B\n",
        "        # Type A cell lives with 2 or 3 living neighbors\n",
        "        # Type B cell lives with 3 or 4 living neighbors\n",
        "        # TODO: should be given more thoughts\n",
        "\n",
        "        next_state = current_state\n",
        "        live_neighbors = count_a + count_b\n",
        "\n",
        "        if current_state == 0: # Dead cell\n",
        "            if count_a == 3 and count_b == 0: next_state = 1 # Birth of Type A\n",
        "            elif count_b == 3 and count_a == 0: next_state = 2 # Birth of Type B\n",
        "        elif current_state == 1: # Type A cell\n",
        "            # Type A cell survices with 2 or 3 live neighbors\n",
        "            if not (live_neighbors == 2 or live_neighbors == 3): next_state = 0 # Dies\n",
        "        elif current_state == 2: # Type B cell\n",
        "             # Type B survices with 3 or 4 live neighbors\n",
        "            if not (live_neighbors == 3 or live_neighbors == 4): next_state = 0 # Dies\n",
        "        return next_state\n",
        "\n",
        "    def step(self):\n",
        "        \"\"\"Advances the game state by one time step.\"\"\"\n",
        "        new_grid = np.zeros_like(self.grid, dtype=np.int8)\n",
        "        for x in range(self.size_l):\n",
        "            for y in range(self.size_w):\n",
        "                for z in range(self.size_h):\n",
        "                    current_state = self.grid[x, y, z]\n",
        "                    count_a, count_b = self._count_neighbors(x, y, z)\n",
        "                    new_grid[x, y, z] = self._apply_rules(current_state, count_a, count_b)\n",
        "        self.grid = new_grid\n",
        "\n",
        "    def get_grid(self):\n",
        "        \"\"\"Returns a copy of the current grid state.\"\"\"\n",
        "        return self.grid.copy()\n",
        "\n",
        "    def get_state_counts(self):\n",
        "        \"\"\"Counts the total number of cells in each state.\"\"\"\n",
        "        unique, counts = np.unique(self.grid, return_counts=True)\n",
        "        # Ensure all states (0, 1, 2) are present in the output dict\n",
        "        state_counts = {0: 0, 1: 0, 2: 0}\n",
        "        state_counts.update(dict(zip(unique, counts)))\n",
        "        return state_counts\n",
        "\n",
        "    # visualization\n",
        "    def visualize_and_save_plot(self, filename, step_number, view_elev=20., view_azim=-65):\n",
        "        \"\"\"\n",
        "        Generates a 3D scatter plot of the current grid state using Matplotlib\n",
        "        and saves it to a file. Only live cells are plotted.\n",
        "\n",
        "        Args:\n",
        "            filename (str): The path to save the image file (e.g., 'frames/frame_001.png').\n",
        "            step_number (int): The current step number (for the plot title).\n",
        "            view_elev (float): Elevation angle for the 3D plot view.\n",
        "            view_azim (float): Azimuth angle for the 3D plot view.\n",
        "        \"\"\"\n",
        "        fig = plt.figure(figsize=(10, 8))\n",
        "        ax = fig.add_subplot(111, projection='3d')\n",
        "\n",
        "        # Get coordinates and states of live cells\n",
        "        live_cells = np.argwhere(self.grid > 0) # Indices where state is 1 or 2\n",
        "        if live_cells.size == 0:\n",
        "             print(f\"Step {step_number}: No live cells to plot.\")\n",
        "             # Still save an empty plot for consistent frame count\n",
        "        else:\n",
        "            x_coords, y_coords, z_coords = live_cells[:, 0], live_cells[:, 1], live_cells[:, 2]\n",
        "            states = self.grid[x_coords, y_coords, z_coords]\n",
        "            # Blue for Type A (1), Green for Type B (2)\n",
        "            colors = ['#3b82f6' if s == 1 else '#10b981' for s in states]\n",
        "            # Create the scatter plot using squares ('s') as markers\n",
        "            ax.scatter(x_coords, y_coords, z_coords, c=colors, marker='s', s=60, depthshade=True)\n",
        "        ax.set_xlim(0, self.size_l)\n",
        "        ax.set_ylim(0, self.size_w)\n",
        "        ax.set_zlim(0, self.size_h)\n",
        "        ax.set_xlabel(\"X\")\n",
        "        ax.set_ylabel(\"Y\")\n",
        "        ax.set_zlabel(\"Z\")\n",
        "        ax.xaxis.pane.fill = False\n",
        "        ax.yaxis.pane.fill = False\n",
        "        ax.zaxis.pane.fill = False\n",
        "        ax.xaxis.pane.set_edgecolor('w')\n",
        "        ax.yaxis.pane.set_edgecolor('w')\n",
        "        ax.zaxis.pane.set_edgecolor('w')\n",
        "        ax.grid(True, which='both', axis='both', linestyle='--', linewidth=0.5, color='grey')\n",
        "\n",
        "        ax.set_title(f\"3D Game of Life - Step {step_number}\")\n",
        "        ax.view_init(elev=view_elev, azim=view_azim)\n",
        "\n",
        "        try:\n",
        "            plt.savefig(filename, dpi=120, bbox_inches='tight', facecolor='white') # Adjust dpi, add background\n",
        "            # print(f\"Saved plot: {filename}\") # Reduce console noise\n",
        "        except Exception as e:\n",
        "            print(f\"Error saving plot {filename}: {e}\")\n",
        "        finally:\n",
        "            plt.close(fig) # Close the figure to free memory\n",
        "\n",
        "    def save_state_to_text(self, filename):\n",
        "        \"\"\"\n",
        "        Saves the entire current grid state to a text file, slice by slice.\n",
        "\n",
        "        Args:\n",
        "            filename (str): The path to save the text file (e.g., 'states/state_001.txt').\n",
        "        \"\"\"\n",
        "        try:\n",
        "            with open(filename, 'w') as f:\n",
        "                 f.write(f\"# Grid State: {self.size_l}x{self.size_w}x{self.size_h}\\n\")\n",
        "                 # Save each z-slice separately for better readability\n",
        "                 for z in range(self.size_h):\n",
        "                     f.write(f\"# Slice z={z}\\n\")\n",
        "                     np.savetxt(f, self.grid[:, :, z], fmt='%d') # Save slice data\n",
        "                     f.write(\"\\n\") # Add newline between slices\n",
        "            # print(f\"Saved state: {filename}\") # Reduce console noise\n",
        "        except Exception as e:\n",
        "            print(f\"Error saving state {filename}: {e}\")"
      ],
      "outputs": [],
      "execution_count": 11,
      "metadata": {
        "id": "xs0ykrODl8Gb"
      }
    },
    {
      "cell_type": "code",
      "source": [],
      "metadata": {
        "id": "OvD1Oxokoksm"
      },
      "execution_count": 11,
      "outputs": []
    },
    {
      "cell_type": "code",
      "source": [
        "# --- Helper Function for Running Simulation and Saving ---\n",
        "def run_simulation_and_save(game_instance, num_steps, frames_dir, states_dir, base_filename_tag=\"gol\"):\n",
        "    \"\"\"\n",
        "    saves visualization frames of GOL and state files for each step.\n",
        "    \"\"\"\n",
        "    print(f\"\\nStarting simulation run '{base_filename_tag}' for {num_steps} steps...\")\n",
        "    print(f\"Output frames to: {frames_dir}\")\n",
        "    print(f\"Output states to: {states_dir}\")\n",
        "\n",
        "    os.makedirs(frames_dir, exist_ok=True)\n",
        "    os.makedirs(states_dir, exist_ok=True)\n",
        "    for step_num in range(num_steps + 1):\n",
        "        frame_filename = os.path.join(frames_dir, f\"{base_filename_tag}_frame_{str(step_num).zfill(4)}.png\")\n",
        "        state_filename = os.path.join(states_dir, f\"{base_filename_tag}_state_{str(step_num).zfill(4)}.txt\")\n",
        "\n",
        "        game_instance.visualize_and_save_plot(frame_filename, step_num)\n",
        "        game_instance.save_state_to_text(state_filename)\n",
        "\n",
        "        # Print progress and state counts periodically or at the end\n",
        "        counts = game_instance.get_state_counts()\n",
        "        print(f\"\\rStep {step_num}/{num_steps} | Counts: A={counts[1]}, B={counts[2]}, Dead={counts[0]}\", end=\"\")\n",
        "\n",
        "        # Advance to the next step (unless it's the last iteration)\n",
        "        if step_num < num_steps:\n",
        "            game_instance.step()\n",
        "\n",
        "    print(f\"\\nSimulation run '{base_filename_tag}' finished.\")\n",
        "\n",
        "    # Construct the suggested command using the actual output directory and filename pattern\n",
        "    ffmpeg_input_pattern = os.path.join(frames_dir, f\"{base_filename_tag}_frame_%04d.png\")\n",
        "    output_video_filename = f\"{base_filename_tag}_video.mp4\"\n",
        "    print(f\"   ffmpeg -framerate 10 -i \\\"{ffmpeg_input_pattern}\\\" -c:v libx264 -pix_fmt yuv420p \\\"{output_video_filename}\\\"\")\n",
        "    print(\"--------------------------------------------------\")"
      ],
      "metadata": {
        "id": "0c7kdQrIonTM"
      },
      "execution_count": 12,
      "outputs": []
    },
    {
      "cell_type": "code",
      "source": [
        "if __name__ == \"__main__\":\n",
        "    GRID_L, GRID_W, GRID_H = 20, 20, 20 # Grid dimensions\n",
        "    NUM_STEPS = 10\n",
        "    INITIAL_DENSITY_A = 0.04           # Initial density for Type A\n",
        "    INITIAL_DENSITY_B = 0.02           # Initial density for Type B\n",
        "\n",
        "    SIMULATION_TAG = \"my_3d_gol_run_1\" # Specific tag for this run's files\n",
        "    OUTPUT_FRAMES_DIR = os.path.join(\"output\", SIMULATION_TAG, \"frames\") # Subfolder for frames\n",
        "    OUTPUT_STATES_DIR = os.path.join(\"output\", SIMULATION_TAG, \"states\") # Subfolder for states\n",
        "\n",
        "    # --- Initialize Game ---\n",
        "    game = GameOfLife3D(size_l=GRID_L, size_w=GRID_W, size_h=GRID_H)\n",
        "    game.randomize(density_a=INITIAL_DENSITY_A, density_b=INITIAL_DENSITY_B)\n",
        "\n",
        "    # --- Run Simulation and Save Outputs using the helper function ---\n",
        "    run_simulation_and_save(\n",
        "        game_instance=game,\n",
        "        num_steps=NUM_STEPS,\n",
        "        frames_dir=OUTPUT_FRAMES_DIR,\n",
        "        states_dir=OUTPUT_STATES_DIR,\n",
        "        base_filename_tag=SIMULATION_TAG\n",
        "    )\n",
        "\n",
        "    print(\"\\nScript finished.\")"
      ],
      "metadata": {
        "colab": {
          "base_uri": "https://localhost:8080/"
        },
        "id": "4EauklCumBRJ",
        "outputId": "402c1cdb-794f-4d5c-e900-78344c06c97f"
      },
      "execution_count": 13,
      "outputs": [
        {
          "output_type": "stream",
          "name": "stdout",
          "text": [
            "Initialized grid with shape: (20, 20, 20)\n",
            "Randomized grid: ~4.0% Type A, ~2.0% Type B.\n",
            "\n",
            "Starting simulation run 'my_3d_gol_run_1' for 10 steps...\n",
            "Output frames to: output/my_3d_gol_run_1/frames\n",
            "Output states to: output/my_3d_gol_run_1/states\n",
            "Step 10/10 | Counts: A=1210, B=43, Dead=6747\n",
            "Simulation run 'my_3d_gol_run_1' finished.\n",
            "   ffmpeg -framerate 10 -i \"output/my_3d_gol_run_1/frames/my_3d_gol_run_1_frame_%04d.png\" -c:v libx264 -pix_fmt yuv420p \"my_3d_gol_run_1_video.mp4\"\n",
            "--------------------------------------------------\n",
            "\n",
            "Script finished.\n"
          ]
        }
      ]
    },
    {
      "cell_type": "code",
      "source": [
        "!ffmpeg -framerate 10 -i output/my_3d_gol_run_1/frames/my_3d_gol_run_1_frame_%04d.png -c:v libx264 -pix_fmt yuv420p my_3d_gol_run_1_video.mp4"
      ],
      "metadata": {
        "colab": {
          "base_uri": "https://localhost:8080/"
        },
        "id": "uihIjlOEmD69",
        "outputId": "c147f08c-b5fc-41e7-ec16-7612fbe28cbe"
      },
      "execution_count": 14,
      "outputs": [
        {
          "output_type": "stream",
          "name": "stdout",
          "text": [
            "ffmpeg version 4.4.2-0ubuntu0.22.04.1 Copyright (c) 2000-2021 the FFmpeg developers\n",
            "  built with gcc 11 (Ubuntu 11.2.0-19ubuntu1)\n",
            "  configuration: --prefix=/usr --extra-version=0ubuntu0.22.04.1 --toolchain=hardened --libdir=/usr/lib/x86_64-linux-gnu --incdir=/usr/include/x86_64-linux-gnu --arch=amd64 --enable-gpl --disable-stripping --enable-gnutls --enable-ladspa --enable-libaom --enable-libass --enable-libbluray --enable-libbs2b --enable-libcaca --enable-libcdio --enable-libcodec2 --enable-libdav1d --enable-libflite --enable-libfontconfig --enable-libfreetype --enable-libfribidi --enable-libgme --enable-libgsm --enable-libjack --enable-libmp3lame --enable-libmysofa --enable-libopenjpeg --enable-libopenmpt --enable-libopus --enable-libpulse --enable-librabbitmq --enable-librubberband --enable-libshine --enable-libsnappy --enable-libsoxr --enable-libspeex --enable-libsrt --enable-libssh --enable-libtheora --enable-libtwolame --enable-libvidstab --enable-libvorbis --enable-libvpx --enable-libwebp --enable-libx265 --enable-libxml2 --enable-libxvid --enable-libzimg --enable-libzmq --enable-libzvbi --enable-lv2 --enable-omx --enable-openal --enable-opencl --enable-opengl --enable-sdl2 --enable-pocketsphinx --enable-librsvg --enable-libmfx --enable-libdc1394 --enable-libdrm --enable-libiec61883 --enable-chromaprint --enable-frei0r --enable-libx264 --enable-shared\n",
            "  libavutil      56. 70.100 / 56. 70.100\n",
            "  libavcodec     58.134.100 / 58.134.100\n",
            "  libavformat    58. 76.100 / 58. 76.100\n",
            "  libavdevice    58. 13.100 / 58. 13.100\n",
            "  libavfilter     7.110.100 /  7.110.100\n",
            "  libswscale      5.  9.100 /  5.  9.100\n",
            "  libswresample   3.  9.100 /  3.  9.100\n",
            "  libpostproc    55.  9.100 / 55.  9.100\n",
            "Input #0, image2, from 'output/my_3d_gol_run_1/frames/my_3d_gol_run_1_frame_%04d.png':\n",
            "  Duration: 00:00:01.10, start: 0.000000, bitrate: N/A\n",
            "  Stream #0:0: Video: png, rgba(pc), 764x788 [SAR 4724:4724 DAR 191:197], 10 fps, 10 tbr, 10 tbn, 10 tbc\n",
            "Stream mapping:\n",
            "  Stream #0:0 -> #0:0 (png (native) -> h264 (libx264))\n",
            "Press [q] to stop, [?] for help\n",
            "\u001b[1;36m[libx264 @ 0x57431af16d00] \u001b[0musing SAR=1/1\n",
            "\u001b[1;36m[libx264 @ 0x57431af16d00] \u001b[0musing cpu capabilities: MMX2 SSE2Fast SSSE3 SSE4.2 AVX FMA3 BMI2 AVX2\n",
            "\u001b[1;36m[libx264 @ 0x57431af16d00] \u001b[0mprofile High, level 3.1, 4:2:0, 8-bit\n",
            "\u001b[1;36m[libx264 @ 0x57431af16d00] \u001b[0m264 - core 163 r3060 5db6aa6 - H.264/MPEG-4 AVC codec - Copyleft 2003-2021 - http://www.videolan.org/x264.html - options: cabac=1 ref=3 deblock=1:0:0 analyse=0x3:0x113 me=hex subme=7 psy=1 psy_rd=1.00:0.00 mixed_ref=1 me_range=16 chroma_me=1 trellis=1 8x8dct=1 cqm=0 deadzone=21,11 fast_pskip=1 chroma_qp_offset=-2 threads=3 lookahead_threads=1 sliced_threads=0 nr=0 decimate=1 interlaced=0 bluray_compat=0 constrained_intra=0 bframes=3 b_pyramid=2 b_adapt=1 b_bias=0 direct=1 weightb=1 open_gop=0 weightp=2 keyint=250 keyint_min=10 scenecut=40 intra_refresh=0 rc_lookahead=40 rc=crf mbtree=1 crf=23.0 qcomp=0.60 qpmin=0 qpmax=69 qpstep=4 ip_ratio=1.40 aq=1:1.00\n",
            "Output #0, mp4, to 'my_3d_gol_run_1_video.mp4':\n",
            "  Metadata:\n",
            "    encoder         : Lavf58.76.100\n",
            "  Stream #0:0: Video: h264 (avc1 / 0x31637661), yuv420p(tv, progressive), 764x788 [SAR 1:1 DAR 191:197], q=2-31, 10 fps, 10240 tbn\n",
            "    Metadata:\n",
            "      encoder         : Lavc58.134.100 libx264\n",
            "    Side data:\n",
            "      cpb: bitrate max/min/avg: 0/0/0 buffer size: 0 vbv_delay: N/A\n",
            "frame=    1 fps=0.0 q=0.0 size=       0kB time=00:00:00.00 bitrate=N/A speed=   0x    \rframe=   11 fps=0.0 q=-1.0 Lsize=     367kB time=00:00:00.80 bitrate=3758.5kbits/s speed=1.41x    \n",
            "video:366kB audio:0kB subtitle:0kB other streams:0kB global headers:0kB muxing overhead: 0.269416%\n",
            "\u001b[1;36m[libx264 @ 0x57431af16d00] \u001b[0mframe I:1     Avg QP:24.62  size: 53348\n",
            "\u001b[1;36m[libx264 @ 0x57431af16d00] \u001b[0mframe P:3     Avg QP:28.14  size: 37222\n",
            "\u001b[1;36m[libx264 @ 0x57431af16d00] \u001b[0mframe B:7     Avg QP:27.00  size: 29883\n",
            "\u001b[1;36m[libx264 @ 0x57431af16d00] \u001b[0mconsecutive B-frames:  9.1% 18.2%  0.0% 72.7%\n",
            "\u001b[1;36m[libx264 @ 0x57431af16d00] \u001b[0mmb I  I16..4:  4.3% 44.7% 51.0%\n",
            "\u001b[1;36m[libx264 @ 0x57431af16d00] \u001b[0mmb P  I16..4:  0.2%  3.6% 17.6%  P16..4:  6.1%  7.3%  9.0%  0.0%  0.0%    skip:56.1%\n",
            "\u001b[1;36m[libx264 @ 0x57431af16d00] \u001b[0mmb B  I16..4:  0.4%  2.2% 11.5%  B16..8:  8.3%  9.0% 10.5%  direct: 1.7%  skip:56.5%  L0:55.2% L1:37.3% BI: 7.5%\n",
            "\u001b[1;36m[libx264 @ 0x57431af16d00] \u001b[0m8x8 transform intra:26.9% inter:22.6%\n",
            "\u001b[1;36m[libx264 @ 0x57431af16d00] \u001b[0mcoded y,uvDC,uvAC intra: 65.8% 69.0% 67.9% inter: 17.3% 21.1% 18.4%\n",
            "\u001b[1;36m[libx264 @ 0x57431af16d00] \u001b[0mi16 v,h,dc,p: 54% 17% 29%  0%\n",
            "\u001b[1;36m[libx264 @ 0x57431af16d00] \u001b[0mi8 v,h,dc,ddl,ddr,vr,hd,vl,hu: 49% 11% 32%  1%  1%  1%  1%  2%  2%\n",
            "\u001b[1;36m[libx264 @ 0x57431af16d00] \u001b[0mi4 v,h,dc,ddl,ddr,vr,hd,vl,hu: 42% 30% 11%  3%  2%  3%  3%  2%  4%\n",
            "\u001b[1;36m[libx264 @ 0x57431af16d00] \u001b[0mi8c dc,h,v,p: 60% 13% 21%  7%\n",
            "\u001b[1;36m[libx264 @ 0x57431af16d00] \u001b[0mWeighted P-Frames: Y:0.0% UV:0.0%\n",
            "\u001b[1;36m[libx264 @ 0x57431af16d00] \u001b[0mref P L0: 44.8%  7.9% 26.4% 20.9%\n",
            "\u001b[1;36m[libx264 @ 0x57431af16d00] \u001b[0mref B L0: 70.4% 25.0%  4.7%\n",
            "\u001b[1;36m[libx264 @ 0x57431af16d00] \u001b[0mref B L1: 86.9% 13.1%\n",
            "\u001b[1;36m[libx264 @ 0x57431af16d00] \u001b[0mkb/s:2721.43\n"
          ]
        }
      ]
    },
    {
      "cell_type": "markdown",
      "source": [
        "# 2D GOL"
      ],
      "metadata": {
        "id": "JQ8_352QsA6w"
      }
    },
    {
      "cell_type": "code",
      "source": [
        "import numpy as np\n",
        "import matplotlib.pyplot as plt\n",
        "import os\n",
        "import time\n",
        "import subprocess\n",
        "\n",
        "def num_live_neigh(mat, i, j):\n",
        "    \"\"\"Counts live neighbors for a cell (i, j).\"\"\"\n",
        "    x_size, y_size = mat.shape\n",
        "    count = 0\n",
        "    for dx in [-1, 0, 1]:\n",
        "        for dy in [-1, 0, 1]:\n",
        "            if dx == 0 and dy == 0: # doesn't count the cell itself\n",
        "                continue\n",
        "            # still use periodic condition\n",
        "            ni = (i + dx) % x_size\n",
        "            nj = (j + dy) % y_size\n",
        "            # if not periodic\n",
        "            # if 0 <= ni < x_size and 0 <= nj < y_size:\n",
        "            count += mat[ni, nj]\n",
        "    return count\n",
        "\n",
        "def step_2d(mat):\n",
        "    \"\"\"Advances by one step.\"\"\"\n",
        "    x_size, y_size = mat.shape\n",
        "    next_gen = np.copy(mat)\n",
        "    for i in range(x_size):\n",
        "        for j in range(y_size):\n",
        "            live_neighbors = num_live_neigh(mat, i, j)\n",
        "            if mat[i, j] == 1: # cell state at time t (alive)\n",
        "                if live_neighbors < 2 or live_neighbors > 3:\n",
        "                    next_gen[i, j] = 0 # Dies\n",
        "                # else: lives (already 1)\n",
        "            else: # cell is dead at time t\n",
        "                if live_neighbors == 3:\n",
        "                    next_gen[i, j] = 1 # Becomes alive\n",
        "    return next_gen # Return the next state grid\n"
      ],
      "metadata": {
        "id": "H8TRS5jHnAJp"
      },
      "execution_count": 20,
      "outputs": []
    },
    {
      "cell_type": "code",
      "source": [
        "def save_frame_2d(mat, filename, step_number):\n",
        "    \"\"\"\n",
        "    Saves the current 2D grid state as a grayscale image using Matplotlib.\n",
        "\n",
        "    Args:\n",
        "        mat (np.ndarray): The 2D grid array.\n",
        "        filename (str): The path to save the image file (e.g., 'frames_2d/frame_001.png').\n",
        "        step_number (int): The current step number (for the plot title).\n",
        "    \"\"\"\n",
        "    fig = plt.figure(figsize=(8, 8)) # Adjust figure size as needed\n",
        "    ax = fig.add_subplot(111)\n",
        "    # Use imshow for 2D grids, cmap='gray' for black/white, vmin/vmax ensure consistency\n",
        "    ax.imshow(mat, cmap='gray', vmin=0, vmax=1, interpolation='nearest')\n",
        "    ax.set_title(f\"2D Game of Life - Step {step_number}\")\n",
        "    ax.set_xticks([]) # Hide axes ticks for cleaner look\n",
        "    ax.set_yticks([])\n",
        "\n",
        "    try:\n",
        "        plt.savefig(filename, dpi=100, bbox_inches='tight')\n",
        "        # print(f\"Saved plot: {filename}\") # Reduce console noise\n",
        "    except Exception as e:\n",
        "        print(f\"Error saving plot {filename}: {e}\")\n",
        "    finally:\n",
        "        plt.close(fig) # Close the figure to free memory\n",
        "\n",
        "def save_state_2d(mat, filename):\n",
        "    \"\"\"\n",
        "    Saves the entire current 2D grid state to a text file.\n",
        "\n",
        "    Args:\n",
        "        mat (np.ndarray): The 2D grid array.\n",
        "        filename (str): The path to save the text file (e.g., 'states_2d/state_001.txt').\n",
        "    \"\"\"\n",
        "    try:\n",
        "        with open(filename, 'w') as f:\n",
        "            f.write(f\"# Grid State 2D: {mat.shape[0]}x{mat.shape[1]}\\n\")\n",
        "            np.savetxt(f, mat, fmt='%d') # Save the 2D array directly\n",
        "        # print(f\"Saved state: {filename}\") # Reduce console noise\n",
        "    except Exception as e:\n",
        "        print(f\"Error saving state {filename}: {e}\")"
      ],
      "metadata": {
        "id": "tSYiPeusx0Gh"
      },
      "execution_count": null,
      "outputs": []
    },
    {
      "cell_type": "code",
      "source": [
        "def run_gol_2d_and_save(initial_mat, num_steps, frames_dir, states_dir, base_filename_tag=\"gol_2d\"):\n",
        "    \"\"\"\n",
        "    Runs the 2D GoL simulation, saves visualization frames and state files for each step.\n",
        "\n",
        "    Args:\n",
        "        initial_mat (np.ndarray): The starting 2D grid state.\n",
        "        num_steps (int): The total number of steps to simulate.\n",
        "        frames_dir (str): Directory path to save image frames.\n",
        "        states_dir (str): Directory path to save text state files.\n",
        "        base_filename_tag (str): A prefix for the output filenames.\n",
        "    \"\"\"\n",
        "    print(f\"\\nStarting 2D simulation run '{base_filename_tag}' for {num_steps} steps...\")\n",
        "    print(f\"Output frames to: {frames_dir}\")\n",
        "    print(f\"Output states to: {states_dir}\")\n",
        "\n",
        "    # Create output directories if they don't exist\n",
        "    os.makedirs(frames_dir, exist_ok=True)\n",
        "    os.makedirs(states_dir, exist_ok=True)\n",
        "\n",
        "    current_mat = np.copy(initial_mat)\n",
        "    prev_mat = None\n",
        "    prev_prev_mat = None\n",
        "\n",
        "    for step_num in range(num_steps + 1):\n",
        "        frame_filename = os.path.join(frames_dir, f\"{base_filename_tag}_frame_{str(step_num).zfill(4)}.png\")\n",
        "        state_filename = os.path.join(states_dir, f\"{base_filename_tag}_state_{str(step_num).zfill(4)}.txt\")\n",
        "        save_frame_2d(current_mat, frame_filename, step_num)\n",
        "        save_state_2d(current_mat, state_filename)\n",
        "\n",
        "        live_count = np.sum(current_mat)\n",
        "        total_cells = current_mat.size\n",
        "        print(f\"\\rStep {step_num}/{num_steps} | Live Cells: {live_count}/{total_cells}      \", end=\"\")\n",
        "\n",
        "        # Stability check\n",
        "        if prev_mat is not None and prev_prev_mat is not None:\n",
        "             # Check for static pattern (current == previous) or oscillator (current == prev_prev)\n",
        "            if np.array_equal(current_mat, prev_mat) or np.array_equal(current_mat, prev_prev_mat):\n",
        "                print(f\"\\nPattern stabilized or entered cycle at step {step_num}. Stopping.\")\n",
        "                break # Stop simulation\n",
        "\n",
        "        if step_num < num_steps:\n",
        "            next_mat = step_2d(current_mat)\n",
        "            prev_prev_mat = prev_mat\n",
        "            prev_mat = current_mat\n",
        "            current_mat = next_mat\n",
        "        else:\n",
        "            pass\n",
        "\n",
        "\n",
        "    print(f\"\\nSimulation run '{base_filename_tag}' finished.\")\n",
        "\n",
        "    ffmpeg_input_pattern = os.path.normpath(os.path.join(frames_dir, f\"{base_filename_tag}_frame_%04d.png\"))\n",
        "    output_video_filename = os.path.normpath(f\"{base_filename_tag}_video.mp4\")\n"
      ],
      "metadata": {
        "id": "yFn4kbJ5x54j"
      },
      "execution_count": null,
      "outputs": []
    },
    {
      "cell_type": "code",
      "source": [
        "if __name__ == \"__main__\":\n",
        "    GRID_SIZE_X, GRID_SIZE_Y = 100, 100\n",
        "    NUM_STEPS = 200\n",
        "    INITIAL_DENSITY = 0.2\n",
        "\n",
        "    SIMULATION_TAG = \"my_2d_gol_run\"\n",
        "    OUTPUT_BASE_DIR = \"output_2d\"\n",
        "    OUTPUT_FRAMES_DIR = os.path.join(OUTPUT_BASE_DIR, SIMULATION_TAG, \"frames\")\n",
        "    OUTPUT_STATES_DIR = os.path.join(OUTPUT_BASE_DIR, SIMULATION_TAG, \"states\")\n",
        "\n",
        "    initial_grid = np.random.choice([0, 1], size=(GRID_SIZE_X, GRID_SIZE_Y), p=[1 - INITIAL_DENSITY, INITIAL_DENSITY])\n",
        "    print(f\"Initialized 2D grid with shape: {initial_grid.shape}\")\n",
        "    print(f\"Initial live cell density: ~{np.mean(initial_grid)*100:.1f}%\")\n",
        "\n",
        "    run_gol_2d_and_save(\n",
        "        initial_mat=initial_grid,\n",
        "        num_steps=NUM_STEPS,\n",
        "        frames_dir=OUTPUT_FRAMES_DIR,\n",
        "        states_dir=OUTPUT_STATES_DIR,\n",
        "        base_filename_tag=SIMULATION_TAG\n",
        "    )\n",
        "\n",
        "    print(\"\\nScript finished.\")"
      ],
      "metadata": {
        "colab": {
          "base_uri": "https://localhost:8080/"
        },
        "id": "dNZgBE4ruSOy",
        "outputId": "22e292a2-2a32-41d5-a9ca-548f34671d70"
      },
      "execution_count": 21,
      "outputs": [
        {
          "output_type": "stream",
          "name": "stdout",
          "text": [
            "Initialized 2D grid with shape: (100, 100)\n",
            "Initial live cell density: ~20.1%\n",
            "\n",
            "Starting 2D simulation run 'my_2d_gol_run' for 200 steps...\n",
            "Output frames to: output_2d/my_2d_gol_run/frames\n",
            "Output states to: output_2d/my_2d_gol_run/states\n",
            "Step 200/200 | Live Cells: 743/10000      \n",
            "Simulation run 'my_2d_gol_run' finished.\n",
            "\n",
            "Script finished.\n"
          ]
        }
      ]
    },
    {
      "cell_type": "code",
      "source": [
        "!ffmpeg -framerate 10 -i \"output_2d/my_2d_gol_run/frames/my_2d_gol_run_frame_%04d.png\" -c:v libx264 -pix_fmt yuv420p \"my_2d_gol_run_1_video.mp4\""
      ],
      "metadata": {
        "colab": {
          "base_uri": "https://localhost:8080/"
        },
        "id": "kQ-ZQgfQu_i2",
        "outputId": "8323138e-923c-464e-9017-43212172a7b2"
      },
      "execution_count": 23,
      "outputs": [
        {
          "output_type": "stream",
          "name": "stdout",
          "text": [
            "ffmpeg version 4.4.2-0ubuntu0.22.04.1 Copyright (c) 2000-2021 the FFmpeg developers\n",
            "  built with gcc 11 (Ubuntu 11.2.0-19ubuntu1)\n",
            "  configuration: --prefix=/usr --extra-version=0ubuntu0.22.04.1 --toolchain=hardened --libdir=/usr/lib/x86_64-linux-gnu --incdir=/usr/include/x86_64-linux-gnu --arch=amd64 --enable-gpl --disable-stripping --enable-gnutls --enable-ladspa --enable-libaom --enable-libass --enable-libbluray --enable-libbs2b --enable-libcaca --enable-libcdio --enable-libcodec2 --enable-libdav1d --enable-libflite --enable-libfontconfig --enable-libfreetype --enable-libfribidi --enable-libgme --enable-libgsm --enable-libjack --enable-libmp3lame --enable-libmysofa --enable-libopenjpeg --enable-libopenmpt --enable-libopus --enable-libpulse --enable-librabbitmq --enable-librubberband --enable-libshine --enable-libsnappy --enable-libsoxr --enable-libspeex --enable-libsrt --enable-libssh --enable-libtheora --enable-libtwolame --enable-libvidstab --enable-libvorbis --enable-libvpx --enable-libwebp --enable-libx265 --enable-libxml2 --enable-libxvid --enable-libzimg --enable-libzmq --enable-libzvbi --enable-lv2 --enable-omx --enable-openal --enable-opencl --enable-opengl --enable-sdl2 --enable-pocketsphinx --enable-librsvg --enable-libmfx --enable-libdc1394 --enable-libdrm --enable-libiec61883 --enable-chromaprint --enable-frei0r --enable-libx264 --enable-shared\n",
            "  libavutil      56. 70.100 / 56. 70.100\n",
            "  libavcodec     58.134.100 / 58.134.100\n",
            "  libavformat    58. 76.100 / 58. 76.100\n",
            "  libavdevice    58. 13.100 / 58. 13.100\n",
            "  libavfilter     7.110.100 /  7.110.100\n",
            "  libswscale      5.  9.100 /  5.  9.100\n",
            "  libswresample   3.  9.100 /  3.  9.100\n",
            "  libpostproc    55.  9.100 / 55.  9.100\n",
            "Input #0, image2, from 'output_2d/my_2d_gol_run/frames/my_2d_gol_run_frame_%04d.png':\n",
            "  Duration: 00:00:20.10, start: 0.000000, bitrate: N/A\n",
            "  Stream #0:0: Video: png, rgba(pc), 636x658 [SAR 3937:3937 DAR 318:329], 10 fps, 10 tbr, 10 tbn, 10 tbc\n",
            "Stream mapping:\n",
            "  Stream #0:0 -> #0:0 (png (native) -> h264 (libx264))\n",
            "Press [q] to stop, [?] for help\n",
            "\u001b[1;36m[libx264 @ 0x5ac892b8aa00] \u001b[0musing SAR=1/1\n",
            "\u001b[1;36m[libx264 @ 0x5ac892b8aa00] \u001b[0musing cpu capabilities: MMX2 SSE2Fast SSSE3 SSE4.2 AVX FMA3 BMI2 AVX2\n",
            "\u001b[1;36m[libx264 @ 0x5ac892b8aa00] \u001b[0mprofile High, level 3.1, 4:2:0, 8-bit\n",
            "\u001b[1;36m[libx264 @ 0x5ac892b8aa00] \u001b[0m264 - core 163 r3060 5db6aa6 - H.264/MPEG-4 AVC codec - Copyleft 2003-2021 - http://www.videolan.org/x264.html - options: cabac=1 ref=3 deblock=1:0:0 analyse=0x3:0x113 me=hex subme=7 psy=1 psy_rd=1.00:0.00 mixed_ref=1 me_range=16 chroma_me=1 trellis=1 8x8dct=1 cqm=0 deadzone=21,11 fast_pskip=1 chroma_qp_offset=-2 threads=3 lookahead_threads=1 sliced_threads=0 nr=0 decimate=1 interlaced=0 bluray_compat=0 constrained_intra=0 bframes=3 b_pyramid=2 b_adapt=1 b_bias=0 direct=1 weightb=1 open_gop=0 weightp=2 keyint=250 keyint_min=10 scenecut=40 intra_refresh=0 rc_lookahead=40 rc=crf mbtree=1 crf=23.0 qcomp=0.60 qpmin=0 qpmax=69 qpstep=4 ip_ratio=1.40 aq=1:1.00\n",
            "Output #0, mp4, to 'my_2d_gol_run_1_video.mp4':\n",
            "  Metadata:\n",
            "    encoder         : Lavf58.76.100\n",
            "  Stream #0:0: Video: h264 (avc1 / 0x31637661), yuv420p(tv, progressive), 636x658 [SAR 1:1 DAR 318:329], q=2-31, 10 fps, 10240 tbn\n",
            "    Metadata:\n",
            "      encoder         : Lavc58.134.100 libx264\n",
            "    Side data:\n",
            "      cpb: bitrate max/min/avg: 0/0/0 buffer size: 0 vbv_delay: N/A\n",
            "frame=  201 fps= 48 q=-1.0 Lsize=    1228kB time=00:00:19.80 bitrate= 508.2kbits/s speed=4.77x    \n",
            "video:1225kB audio:0kB subtitle:0kB other streams:0kB global headers:0kB muxing overhead: 0.263533%\n",
            "\u001b[1;36m[libx264 @ 0x5ac892b8aa00] \u001b[0mframe I:1     Avg QP:27.97  size: 35628\n",
            "\u001b[1;36m[libx264 @ 0x5ac892b8aa00] \u001b[0mframe P:50    Avg QP:26.35  size:  7583\n",
            "\u001b[1;36m[libx264 @ 0x5ac892b8aa00] \u001b[0mframe B:150   Avg QP:30.96  size:  5594\n",
            "\u001b[1;36m[libx264 @ 0x5ac892b8aa00] \u001b[0mconsecutive B-frames:  0.5%  0.0%  0.0% 99.5%\n",
            "\u001b[1;36m[libx264 @ 0x5ac892b8aa00] \u001b[0mmb I  I16..4:  8.5%  5.2% 86.3%\n",
            "\u001b[1;36m[libx264 @ 0x5ac892b8aa00] \u001b[0mmb P  I16..4:  3.6%  5.2%  5.5%  P16..4:  9.7%  8.3%  8.9%  0.0%  0.0%    skip:58.9%\n",
            "\u001b[1;36m[libx264 @ 0x5ac892b8aa00] \u001b[0mmb B  I16..4:  1.0%  1.2%  2.3%  B16..8: 18.9%  8.8%  7.9%  direct: 1.4%  skip:58.6%  L0:52.7% L1:46.1% BI: 1.2%\n",
            "\u001b[1;36m[libx264 @ 0x5ac892b8aa00] \u001b[0m8x8 transform intra:29.6% inter:2.3%\n",
            "\u001b[1;36m[libx264 @ 0x5ac892b8aa00] \u001b[0mcoded y,uvDC,uvAC intra: 20.5% 0.0% 0.0% inter: 5.7% 0.0% 0.0%\n",
            "\u001b[1;36m[libx264 @ 0x5ac892b8aa00] \u001b[0mi16 v,h,dc,p: 66% 31%  4%  0%\n",
            "\u001b[1;36m[libx264 @ 0x5ac892b8aa00] \u001b[0mi8 v,h,dc,ddl,ddr,vr,hd,vl,hu: 10%  6% 84%  0%  0%  0%  0%  0%  0%\n",
            "\u001b[1;36m[libx264 @ 0x5ac892b8aa00] \u001b[0mi4 v,h,dc,ddl,ddr,vr,hd,vl,hu: 39% 26% 30%  1%  1%  1%  1%  1%  1%\n",
            "\u001b[1;36m[libx264 @ 0x5ac892b8aa00] \u001b[0mi8c dc,h,v,p: 100%  0%  0%  0%\n",
            "\u001b[1;36m[libx264 @ 0x5ac892b8aa00] \u001b[0mWeighted P-Frames: Y:0.0% UV:0.0%\n",
            "\u001b[1;36m[libx264 @ 0x5ac892b8aa00] \u001b[0mref P L0: 54.6%  2.6% 25.9% 17.0%\n",
            "\u001b[1;36m[libx264 @ 0x5ac892b8aa00] \u001b[0mref B L0: 71.6% 22.4%  6.0%\n",
            "\u001b[1;36m[libx264 @ 0x5ac892b8aa00] \u001b[0mref B L1: 89.0% 11.0%\n",
            "\u001b[1;36m[libx264 @ 0x5ac892b8aa00] \u001b[0mkb/s:499.03\n"
          ]
        }
      ]
    },
    {
      "cell_type": "code",
      "source": [
        "!git status"
      ],
      "metadata": {
        "colab": {
          "base_uri": "https://localhost:8080/"
        },
        "id": "Z4Diac6lwUdf",
        "outputId": "cbdaac48-9ef4-43a0-8b75-fdbb59b6616c"
      },
      "execution_count": 25,
      "outputs": [
        {
          "output_type": "stream",
          "name": "stdout",
          "text": [
            "fatal: not a git repository (or any of the parent directories): .git\n"
          ]
        }
      ]
    },
    {
      "cell_type": "code",
      "source": [],
      "metadata": {
        "id": "Q4_GfFLJzjA2"
      },
      "execution_count": null,
      "outputs": []
    }
  ],
  "metadata": {
    "colab": {
      "provenance": [],
      "collapsed_sections": [
        "S4rcBUqBr8tf"
      ]
    },
    "kernelspec": {
      "display_name": "Python 3",
      "name": "python3"
    }
  },
  "nbformat": 4,
  "nbformat_minor": 0
}